<svg xmlns="http://www.w3.org/2000/svg" viewBox="0 0 1920 1370"><defs><style>.cls-1{fill:#42210b;}</style></defs><title>門背景</title><g id="SHOP"><path class="cls-1" d="M1919,425v944H1195V425h724m1-1H1194v946h726V424Z"/><path class="cls-1" d="M725,425v944H1V425H725m1-1H0v946H726V424Z"/><path class="cls-1" d="M1919,270v18H1V270H1919m1-1H0v20H1920V269Z"/><path class="cls-1" d="M1919,406v18H1V406H1919m1-1H0v20H1920V405Z"/><path class="cls-1" d="M1919,289v48H1V289H1919m1-1H0v50H1920V288Z"/><path class="cls-1" d="M1919,338v48H1V338H1919m1-1H0v50H1920V337Z"/><path class="cls-1" d="M1919,387v18H1V387H1919m1-1H0v20H1920V386Z"/><path class="cls-1" d="M1919,1V19H1V1H1919m1-1H0V20H1920V0Z"/><path class="cls-1" d="M1919,20.25v248H1v-248H1919m1-1H0v250H1920v-250Z"/><path class="cls-1" d="M699,70.25v148H51v-148H699m1-1H50v150H700v-150Z"/><path class="cls-1" d="M699,524v498H51V524H699m1-1H50v500H700V523Z"/><path class="cls-1" d="M1869,524v498H1221V524h648m1-1H1220v500h650V523Z"/><path class="cls-1" d="M1109,70.25v148H811v-148h298m1-1H810v150h300v-150Z"/><path class="cls-1" d="M1869,70.25v148H1221v-148h648m1-1H1220v150h650v-150Z"/><path class="cls-1" d="M699,1122v148H51V1122H699m1-1H50v150H700V1121Z"/><path class="cls-1" d="M1869,1122v148H1221V1122h648m1-1H1220v150h650V1121Z"/><path class="cls-1" d="M637.79,75.25A56.27,56.27,0,0,1,694,131.46v81.79H56V131.46a56.27,56.27,0,0,1,56.21-56.21H637.79m0-1H112.21A57.21,57.21,0,0,0,55,131.46v82.79H695V131.46a57.21,57.21,0,0,0-57.21-57.21Z"/><path class="cls-1" d="M1807.79,75A56.27,56.27,0,0,1,1864,131.21V213H1226V131.21A56.27,56.27,0,0,1,1282.21,75h525.58m0-1H1282.21A57.21,57.21,0,0,0,1225,131.21V214h640V131.21A57.21,57.21,0,0,0,1807.79,74Z"/><path class="cls-1" d="M1047.79,75A56.27,56.27,0,0,1,1104,131.21V213H816V131.21A56.27,56.27,0,0,1,872.21,75h175.58m0-1H872.21A57.21,57.21,0,0,0,815,131.21V214h290V131.21A57.21,57.21,0,0,0,1047.79,74Z"/><path class="cls-1" d="M969,338v48H951V338h18m1-1H950v50h20V337Z"/><path class="cls-1" d="M941,338v48H923V338h18m1-1H922v50h20V337Z"/><path class="cls-1" d="M913,338v48H895V338h18m1-1H894v50h20V337Z"/><path class="cls-1" d="M885,338v48H867V338h18m1-1H866v50h20V337Z"/><path class="cls-1" d="M857,338v48H839V338h18m1-1H838v50h20V337Z"/><path class="cls-1" d="M829,338v48H811V338h18m1-1H810v50h20V337Z"/><path class="cls-1" d="M801,338v48H783V338h18m1-1H782v50h20V337Z"/><path class="cls-1" d="M773,338v48H755V338h18m1-1H754v50h20V337Z"/><path class="cls-1" d="M745,338v48H727V338h18m1-1H726v50h20V337Z"/><path class="cls-1" d="M717,338v48H699V338h18m1-1H698v50h20V337Z"/><path class="cls-1" d="M689,338v48H671V338h18m1-1H670v50h20V337Z"/><path class="cls-1" d="M661,338v48H643V338h18m1-1H642v50h20V337Z"/><path class="cls-1" d="M633,338v48H615V338h18m1-1H614v50h20V337Z"/><path class="cls-1" d="M605,338v48H587V338h18m1-1H586v50h20V337Z"/><path class="cls-1" d="M577,338v48H559V338h18m1-1H558v50h20V337Z"/><path class="cls-1" d="M549,338v48H531V338h18m1-1H530v50h20V337Z"/><path class="cls-1" d="M521,338v48H503V338h18m1-1H502v50h20V337Z"/><path class="cls-1" d="M493,338v48H475V338h18m1-1H474v50h20V337Z"/><path class="cls-1" d="M465,338v48H447V338h18m1-1H446v50h20V337Z"/><path class="cls-1" d="M437,338v48H419V338h18m1-1H418v50h20V337Z"/><path class="cls-1" d="M409,338v48H391V338h18m1-1H390v50h20V337Z"/><path class="cls-1" d="M381,338v48H363V338h18m1-1H362v50h20V337Z"/><path class="cls-1" d="M353,338v48H335V338h18m1-1H334v50h20V337Z"/><path class="cls-1" d="M325,338v48H307V338h18m1-1H306v50h20V337Z"/><path class="cls-1" d="M297,338v48H279V338h18m1-1H278v50h20V337Z"/><path class="cls-1" d="M269,338v48H251V338h18m1-1H250v50h20V337Z"/><path class="cls-1" d="M241,338v48H223V338h18m1-1H222v50h20V337Z"/><path class="cls-1" d="M213,338v48H195V338h18m1-1H194v50h20V337Z"/><path class="cls-1" d="M185,338v48H167V338h18m1-1H166v50h20V337Z"/><path class="cls-1" d="M157,338v48H139V338h18m1-1H138v50h20V337Z"/><path class="cls-1" d="M129,338v48H111V338h18m1-1H110v50h20V337Z"/><path class="cls-1" d="M101,338v48H83V338h18m1-1H82v50h20V337Z"/><path class="cls-1" d="M73,338v48H55V338H73m1-1H54v50H74V337Z"/><path class="cls-1" d="M45,338v48H27V338H45m1-1H26v50H46V337Z"/><path class="cls-1" d="M17,338v48H-1V338H17m1-1H-2v50H18V337Z"/><path class="cls-1" d="M997,338v48H979V338h18m1-1H978v50h20V337Z"/><path class="cls-1" d="M1025,338v48h-18V338h18m1-1h-20v50h20V337Z"/><path class="cls-1" d="M1053,338v48h-18V338h18m1-1h-20v50h20V337Z"/><path class="cls-1" d="M1081,338v48h-18V338h18m1-1h-20v50h20V337Z"/><path class="cls-1" d="M1109,338v48h-18V338h18m1-1h-20v50h20V337Z"/><path class="cls-1" d="M1137,338v48h-18V338h18m1-1h-20v50h20V337Z"/><path class="cls-1" d="M1165,338v48h-18V338h18m1-1h-20v50h20V337Z"/><path class="cls-1" d="M1193,338v48h-18V338h18m1-1h-20v50h20V337Z"/><path class="cls-1" d="M1221,338v48h-18V338h18m1-1h-20v50h20V337Z"/><path class="cls-1" d="M1249,338v48h-18V338h18m1-1h-20v50h20V337Z"/><path class="cls-1" d="M1277,338v48h-18V338h18m1-1h-20v50h20V337Z"/><path class="cls-1" d="M1305,338v48h-18V338h18m1-1h-20v50h20V337Z"/><path class="cls-1" d="M1333,338v48h-18V338h18m1-1h-20v50h20V337Z"/><path class="cls-1" d="M1361,338v48h-18V338h18m1-1h-20v50h20V337Z"/><path class="cls-1" d="M1389,338v48h-18V338h18m1-1h-20v50h20V337Z"/><path class="cls-1" d="M1417,338v48h-18V338h18m1-1h-20v50h20V337Z"/><path class="cls-1" d="M1445,338v48h-18V338h18m1-1h-20v50h20V337Z"/><path class="cls-1" d="M1473,338v48h-18V338h18m1-1h-20v50h20V337Z"/><path class="cls-1" d="M1501,338v48h-18V338h18m1-1h-20v50h20V337Z"/><path class="cls-1" d="M1529,338v48h-18V338h18m1-1h-20v50h20V337Z"/><path class="cls-1" d="M1557,338v48h-18V338h18m1-1h-20v50h20V337Z"/><path class="cls-1" d="M1585,338v48h-18V338h18m1-1h-20v50h20V337Z"/><path class="cls-1" d="M1613,338v48h-18V338h18m1-1h-20v50h20V337Z"/><path class="cls-1" d="M1641,338v48h-18V338h18m1-1h-20v50h20V337Z"/><path class="cls-1" d="M1669,338v48h-18V338h18m1-1h-20v50h20V337Z"/><path class="cls-1" d="M1697,338v48h-18V338h18m1-1h-20v50h20V337Z"/><path class="cls-1" d="M1725,338v48h-18V338h18m1-1h-20v50h20V337Z"/><path class="cls-1" d="M1753,338v48h-18V338h18m1-1h-20v50h20V337Z"/><path class="cls-1" d="M1781,338v48h-18V338h18m1-1h-20v50h20V337Z"/><path class="cls-1" d="M1809,338v48h-18V338h18m1-1h-20v50h20V337Z"/><path class="cls-1" d="M1837,338v48h-18V338h18m1-1h-20v50h20V337Z"/><path class="cls-1" d="M1865,338v48h-18V338h18m1-1h-20v50h20V337Z"/><path class="cls-1" d="M1893,338v48h-18V338h18m1-1h-20v50h20V337Z"/><path class="cls-1" d="M1921,338v48h-18V338h18m1-1h-20v50h20V337Z"/><path class="cls-1" d="M689,534v478H61V534H689m1-1H60v480H690V533Z"/><path class="cls-1" d="M1859,534v478H1231V534h628m1-1H1230v480h630V533Z"/><path class="cls-1" d="M689,1132v128H61V1132H689m1-1H60v130H690V1131Z"/><path class="cls-1" d="M1859,1132v128H1231V1132h628m1-1H1230v130h630V1131Z"/></g><g id="DOORL"><path class="cls-1" d="M959,425v944H726V425H959m1-1H725v946H960V424Z"/><path class="cls-1" d="M941.5,524v498h-178V524h178m1-1h-180v500h180V523Z"/><path class="cls-1" d="M932,534v478H774V534H932m1-1H773v480H933V533Z"/><path class="cls-1" d="M942,1123v148H764V1123H942m1-1H763v150H943V1122Z"/><path class="cls-1" d="M932,1133v128H774V1133H932m1-1H773v130H933V1132Z"/></g><g id="DOORR"><path class="cls-1" d="M1193.5,425v944h-233V425h233m1-1h-235v946h235V424Z"/><path class="cls-1" d="M1156,524v498H978V524h178m1-1H977v500h180V523Z"/><path class="cls-1" d="M1146,534v478H988V534h158m1-1H987v480h160V533Z"/><path class="cls-1" d="M1156,1123v148H978V1123h178m1-1H977v150h180V1122Z"/><path class="cls-1" d="M1146,1133v128H988V1133h158m1-1H987v130h160V1132Z"/></g></svg>