<svg width="1364" height="1370" viewBox="0 0 1364 1370" fill="none" xmlns="http://www.w3.org/2000/svg">
<g clip-path="url(#clip0_529_2)">
<path d="M1641 425V1369H917V425H1641ZM1642 424H916V1370H1642V424Z" fill="#42210B"/>
<path d="M447 425V1369H-277V425H447ZM448 424H-278V1370H448V424Z" fill="#42210B"/>
<path d="M1641 270V288H-277V270H1641ZM1642 269H-278V289H1642V269Z" fill="#42210B"/>
<path d="M1641 406V424H-277V406H1641ZM1642 405H-278V425H1642V405Z" fill="#42210B"/>
<path d="M1641 289V337H-277V289H1641ZM1642 288H-278V338H1642V288Z" fill="#42210B"/>
<path d="M1641 338V386H-277V338H1641ZM1642 337H-278V387H1642V337Z" fill="#42210B"/>
<path d="M1641 387V405H-277V387H1641ZM1642 386H-278V406H1642V386Z" fill="#42210B"/>
<path d="M1641 1V19H-277V1H1641ZM1642 0H-278V20H1642V0Z" fill="#42210B"/>
<path d="M1641 20.25V268.25H-277V20.25H1641ZM1642 19.25H-278V269.25H1642V19.25Z" fill="#42210B"/>
<path d="M421 70.25V218.25H-227V70.25H421ZM422 69.25H-228V219.25H422V69.25Z" fill="#42210B"/>
<path d="M421 524V1022H-227V524H421ZM422 523H-228V1023H422V523Z" fill="#42210B"/>
<path d="M1591 524V1022H943V524H1591ZM1592 523H942V1023H1592V523Z" fill="#42210B"/>
<path d="M831 70.25V218.25H533V70.25H831ZM832 69.25H532V219.25H832V69.25Z" fill="#42210B"/>
<path d="M1591 70.25V218.25H943V70.25H1591ZM1592 69.25H942V219.25H1592V69.25Z" fill="#42210B"/>
<path d="M421 1122V1270H-227V1122H421ZM422 1121H-228V1271H422V1121Z" fill="#42210B"/>
<path d="M1591 1122V1270H943V1122H1591ZM1592 1121H942V1271H1592V1121Z" fill="#42210B"/>
<path d="M359.79 75.25C374.693 75.2659 388.981 81.1931 399.519 91.7311C410.057 102.269 415.984 116.557 416 131.46V213.25H-222V131.46C-221.984 116.557 -216.057 102.269 -205.519 91.7311C-194.981 81.1931 -180.693 75.2659 -165.79 75.25H359.79ZM359.79 74.25H-165.79C-180.963 74.25 -195.515 80.2775 -206.244 91.0064C-216.973 101.735 -223 116.287 -223 131.46V214.25H417V131.46C417 123.947 415.52 116.508 412.645 109.567C409.77 102.626 405.556 96.3189 400.244 91.0064C394.931 85.694 388.624 81.4799 381.683 78.6049C374.742 75.7298 367.303 74.25 359.79 74.25Z" fill="#42210B"/>
<path d="M1529.79 75C1544.69 75.0159 1558.98 80.9431 1569.52 91.4811C1580.06 102.019 1585.98 116.307 1586 131.21V213H948V131.21C948.016 116.307 953.943 102.019 964.481 91.4811C975.019 80.9431 989.307 75.0159 1004.21 75H1529.79ZM1529.79 74H1004.21C989.037 74 974.485 80.0275 963.756 90.7564C953.028 101.485 947 116.037 947 131.21V214H1587V131.21C1587 116.037 1580.97 101.485 1570.24 90.7564C1559.51 80.0275 1544.96 74 1529.79 74Z" fill="#42210B"/>
<path d="M769.79 75C784.693 75.0159 798.981 80.9431 809.519 91.4811C820.057 102.019 825.984 116.307 826 131.21V213H538V131.21C538.016 116.307 543.943 102.019 554.481 91.4811C565.019 80.9431 579.307 75.0159 594.21 75H769.79ZM769.79 74H594.21C579.037 74 564.485 80.0275 553.756 90.7564C543.027 101.485 537 116.037 537 131.21V214H827V131.21C827 116.037 820.972 101.485 810.244 90.7564C799.515 80.0275 784.963 74 769.79 74Z" fill="#42210B"/>
<path d="M691 338V386H673V338H691ZM692 337H672V387H692V337Z" fill="#42210B"/>
<path d="M663 338V386H645V338H663ZM664 337H644V387H664V337Z" fill="#42210B"/>
<path d="M635 338V386H617V338H635ZM636 337H616V387H636V337Z" fill="#42210B"/>
<path d="M607 338V386H589V338H607ZM608 337H588V387H608V337Z" fill="#42210B"/>
<path d="M579 338V386H561V338H579ZM580 337H560V387H580V337Z" fill="#42210B"/>
<path d="M551 338V386H533V338H551ZM552 337H532V387H552V337Z" fill="#42210B"/>
<path d="M523 338V386H505V338H523ZM524 337H504V387H524V337Z" fill="#42210B"/>
<path d="M495 338V386H477V338H495ZM496 337H476V387H496V337Z" fill="#42210B"/>
<path d="M467 338V386H449V338H467ZM468 337H448V387H468V337Z" fill="#42210B"/>
<path d="M439 338V386H421V338H439ZM440 337H420V387H440V337Z" fill="#42210B"/>
<path d="M411 338V386H393V338H411ZM412 337H392V387H412V337Z" fill="#42210B"/>
<path d="M383 338V386H365V338H383ZM384 337H364V387H384V337Z" fill="#42210B"/>
<path d="M355 338V386H337V338H355ZM356 337H336V387H356V337Z" fill="#42210B"/>
<path d="M327 338V386H309V338H327ZM328 337H308V387H328V337Z" fill="#42210B"/>
<path d="M299 338V386H281V338H299ZM300 337H280V387H300V337Z" fill="#42210B"/>
<path d="M271 338V386H253V338H271ZM272 337H252V387H272V337Z" fill="#42210B"/>
<path d="M243 338V386H225V338H243ZM244 337H224V387H244V337Z" fill="#42210B"/>
<path d="M215 338V386H197V338H215ZM216 337H196V387H216V337Z" fill="#42210B"/>
<path d="M187 338V386H169V338H187ZM188 337H168V387H188V337Z" fill="#42210B"/>
<path d="M159 338V386H141V338H159ZM160 337H140V387H160V337Z" fill="#42210B"/>
<path d="M131 338V386H113V338H131ZM132 337H112V387H132V337Z" fill="#42210B"/>
<path d="M103 338V386H85V338H103ZM104 337H84V387H104V337Z" fill="#42210B"/>
<path d="M75 338V386H57V338H75ZM76 337H56V387H76V337Z" fill="#42210B"/>
<path d="M47 338V386H29V338H47ZM48 337H28V387H48V337Z" fill="#42210B"/>
<path d="M19 338V386H1V338H19ZM20 337H0V387H20V337Z" fill="#42210B"/>
<path d="M719 338V386H701V338H719ZM720 337H700V387H720V337Z" fill="#42210B"/>
<path d="M747 338V386H729V338H747ZM748 337H728V387H748V337Z" fill="#42210B"/>
<path d="M775 338V386H757V338H775ZM776 337H756V387H776V337Z" fill="#42210B"/>
<path d="M803 338V386H785V338H803ZM804 337H784V387H804V337Z" fill="#42210B"/>
<path d="M831 338V386H813V338H831ZM832 337H812V387H832V337Z" fill="#42210B"/>
<path d="M859 338V386H841V338H859ZM860 337H840V387H860V337Z" fill="#42210B"/>
<path d="M887 338V386H869V338H887ZM888 337H868V387H888V337Z" fill="#42210B"/>
<path d="M915 338V386H897V338H915ZM916 337H896V387H916V337Z" fill="#42210B"/>
<path d="M943 338V386H925V338H943ZM944 337H924V387H944V337Z" fill="#42210B"/>
<path d="M971 338V386H953V338H971ZM972 337H952V387H972V337Z" fill="#42210B"/>
<path d="M999 338V386H981V338H999ZM1000 337H980V387H1000V337Z" fill="#42210B"/>
<path d="M1027 338V386H1009V338H1027ZM1028 337H1008V387H1028V337Z" fill="#42210B"/>
<path d="M1055 338V386H1037V338H1055ZM1056 337H1036V387H1056V337Z" fill="#42210B"/>
<path d="M1083 338V386H1065V338H1083ZM1084 337H1064V387H1084V337Z" fill="#42210B"/>
<path d="M1111 338V386H1093V338H1111ZM1112 337H1092V387H1112V337Z" fill="#42210B"/>
<path d="M1139 338V386H1121V338H1139ZM1140 337H1120V387H1140V337Z" fill="#42210B"/>
<path d="M1167 338V386H1149V338H1167ZM1168 337H1148V387H1168V337Z" fill="#42210B"/>
<path d="M1195 338V386H1177V338H1195ZM1196 337H1176V387H1196V337Z" fill="#42210B"/>
<path d="M1223 338V386H1205V338H1223ZM1224 337H1204V387H1224V337Z" fill="#42210B"/>
<path d="M1251 338V386H1233V338H1251ZM1252 337H1232V387H1252V337Z" fill="#42210B"/>
<path d="M1279 338V386H1261V338H1279ZM1280 337H1260V387H1280V337Z" fill="#42210B"/>
<path d="M1307 338V386H1289V338H1307ZM1308 337H1288V387H1308V337Z" fill="#42210B"/>
<path d="M1335 338V386H1317V338H1335ZM1336 337H1316V387H1336V337Z" fill="#42210B"/>
<path d="M1363 338V386H1345V338H1363ZM1364 337H1344V387H1364V337Z" fill="#42210B"/>
<path d="M411 534V1012H-217V534H411ZM412 533H-218V1013H412V533Z" fill="#42210B"/>
<path d="M1581 534V1012H953V534H1581ZM1582 533H952V1013H1582V533Z" fill="#42210B"/>
<path d="M411 1132V1260H-217V1132H411ZM412 1131H-218V1261H412V1131Z" fill="#42210B"/>
<path d="M1581 1132V1260H953V1132H1581ZM1582 1131H952V1261H1582V1131Z" fill="#42210B"/>
<path d="M681 425V1369H448V425H681ZM682 424H447V1370H682V424Z" fill="#42210B"/>
<path d="M663.5 524V1022H485.5V524H663.5ZM664.5 523H484.5V1023H664.5V523Z" fill="#42210B"/>
<path d="M654 534V1012H496V534H654ZM655 533H495V1013H655V533Z" fill="#42210B"/>
<path d="M664 1123V1271H486V1123H664ZM665 1122H485V1272H665V1122Z" fill="#42210B"/>
<path d="M654 1133V1261H496V1133H654ZM655 1132H495V1262H655V1132Z" fill="#42210B"/>
<path d="M915.5 425V1369H682.5V425H915.5ZM916.5 424H681.5V1370H916.5V424Z" fill="#42210B"/>
<path d="M878 524V1022H700V524H878ZM879 523H699V1023H879V523Z" fill="#42210B"/>
<path d="M868 534V1012H710V534H868ZM869 533H709V1013H869V533Z" fill="#42210B"/>
<path d="M878 1123V1271H700V1123H878ZM879 1122H699V1272H879V1122Z" fill="#42210B"/>
<path d="M868 1133V1261H710V1133H868ZM869 1132H709V1262H869V1132Z" fill="#42210B"/>
</g>
<defs>
<clipPath id="clip0_529_2">
<rect width="1364" height="1370" fill="white"/>
</clipPath>
</defs>
</svg>
